<svg width="190" height="38" viewBox="0 0 190 38" fill="none" xmlns="http://www.w3.org/2000/svg">
<path d="M8.62435 32.5994H4.6791L3.00962 37.7899H0L2.09261 31.2909H9.04688L8.62435 32.5994ZM11.3588 37.7899H8.34977L10.4417 31.2909H15.0475C16.3084 31.2909 17.304 31.4205 18.0391 31.6792C18.8701 31.9799 19.286 32.4283 19.286 33.0238C19.286 33.1741 19.262 33.3278 19.2127 33.4842C18.9808 34.2066 18.3257 34.7479 17.2494 35.1088C16.2717 35.4402 15.0108 35.6053 13.47 35.6053H12.0558L11.3588 37.7899V37.7899ZM13.0289 32.5907L12.4783 34.3055H13.8179C15.5067 34.3055 16.3503 33.96 16.3503 33.2677C16.3503 32.8166 15.6899 32.5907 14.3684 32.5907H13.0289V32.5907ZM31.5251 31.2909L23.9837 37.7899H20.8821L22.6635 36.2282L19.7451 31.2909H22.9381L24.7734 34.5768L28.3515 31.2909H31.5251V31.2909ZM40.8845 37.7899H37.8756L39.545 32.6087H35.2332L33.5631 37.7899H30.5541L32.646 31.2909H42.9764L40.8845 37.7899V37.7899ZM53.5828 37.7899H50.5738L52.2433 32.6087H47.9314L46.2613 37.7899H43.2524L45.3443 31.2909H55.6747L53.5828 37.7899V37.7899ZM67.7345 37.7899H64.4497L63.9905 36.6164H59.2575L57.9913 37.7899H54.7604L62.1198 31.2909H64.579L67.7345 37.7899ZM63.5507 35.4068L62.7976 33.0779L60.5044 35.4068H63.5507V35.4068ZM85.5497 37.7899H81.9889L79.016 34.8475L78.0623 37.7899H75.0534L77.144 31.2909H80.1549L79.1819 34.2969L84.2468 31.2909H87.4757L81.8243 34.522L85.5497 37.7899V37.7899ZM92.0994 37.9162C90.3994 37.9162 88.9865 37.6502 87.8603 37.1176C86.7353 36.585 86.1735 35.9034 86.1735 35.0727C86.1735 34.0261 86.9899 33.1126 88.6226 32.3334C90.2554 31.5542 92.1361 31.1646 94.2647 31.1646C95.9654 31.1646 97.3716 31.4205 98.4859 31.9318C99.6109 32.4611 100.175 33.1414 100.175 33.972C100.175 35.0306 99.3662 35.9528 97.7521 36.7381C96.1367 37.5239 94.2527 37.9162 92.0994 37.9162V37.9162ZM93.8435 32.5005C92.6192 32.5005 91.5463 32.7424 90.6226 33.2269C89.6989 33.7114 89.2365 34.2574 89.2365 34.8655C89.2365 35.3467 89.5396 35.753 90.1455 36.0838C90.7512 36.4146 91.5437 36.5803 92.522 36.5803C93.7702 36.5803 94.8465 36.3338 95.7509 35.8399C96.6572 35.3467 97.1097 34.79 97.1097 34.1705C97.1097 33.6827 96.8091 33.283 96.21 32.9696C95.6109 32.6568 94.8218 32.5005 93.8435 32.5005V32.5005ZM114.692 37.7899H111.884L113.094 34.1164C113.218 33.833 113.382 33.4093 113.59 32.8433C113.578 32.8433 111.976 34.492 108.782 37.7899H106.765L105.186 32.8166L105.167 32.8253C105.094 33.108 104.978 33.5323 104.819 34.0983L103.663 37.7899H100.837L102.93 31.2909H106.948L108.434 35.7951L112.801 31.2909H116.783L114.692 37.7899V37.7899ZM127.404 37.7899H124.395L126.064 32.6087H121.752L120.082 37.7899H117.073L119.165 31.2909H129.496L127.404 37.7899V37.7899ZM141.556 37.7899H138.271L137.812 36.6164H133.079L131.812 37.7899H128.581L135.941 31.2909H138.4L141.556 37.7899V37.7899ZM137.372 35.4068L136.619 33.0779L134.325 35.4068H137.372V35.4068ZM153.316 37.7899H150.305L151.168 35.1268H146.581L145.719 37.7899H142.727L144.819 31.2909H147.809L147.002 33.809H151.59L152.397 31.2909H155.406L153.316 37.7899ZM166.728 37.7899H163.793L165.077 33.7729L158.215 37.7899H155.7L157.792 31.2909H160.801L159.517 35.2718L166.362 31.2909H168.821L166.728 37.7899V37.7899ZM180.128 29.4766C179.992 29.8915 179.586 30.2484 178.907 30.5465C178.229 30.8438 177.46 30.9929 176.604 30.9929C175.87 30.9929 175.265 30.8712 174.787 30.6273C174.311 30.384 174.072 30.0813 174.072 29.7205C174.072 29.6363 174.084 29.5548 174.108 29.4766H175.961C175.949 29.5307 175.944 29.5822 175.944 29.6303C175.944 29.9851 176.262 30.1629 176.897 30.1629C177.669 30.1629 178.127 29.9336 178.274 29.4766H180.128V29.4766ZM179.852 37.7899H176.916L178.219 33.7729L171.338 37.7899H168.823L170.915 31.2909H173.925L172.641 35.2718L179.485 31.2909H181.944L179.852 37.7899V37.7899Z" fill="white"/>
<path fill-rule="evenodd" clip-rule="evenodd" d="M176.668 0.838867C181.513 0.838867 185.113 1.83057 187.468 3.81295C190.131 6.04709 190.694 9.22237 189.156 13.3385C187.862 16.8027 185.507 19.7269 182.095 22.1113C177.74 25.1735 172.352 26.7046 165.93 26.7046C161.114 26.7046 157.486 25.7511 155.045 23.843C152.249 21.6594 151.61 18.5345 153.13 14.4682C153.997 12.1451 155.25 10.1044 156.886 8.34606L157.877 8.38419C158.82 8.42063 159.771 8.42211 160.714 8.42211H160.928L162.768 4.02024C164.729 3.03623 166.918 2.2645 169.336 1.70479C171.873 1.12767 174.318 0.838867 176.668 0.838867ZM173.749 7.61584C171.743 7.61584 169.855 8.25612 168.087 9.53614C166.319 10.8162 165.097 12.36 164.422 14.1672C163.803 15.8237 163.899 17.1981 164.709 18.2897C165.52 19.3818 166.871 19.9276 168.763 19.9276C170.741 19.9276 172.604 19.275 174.353 17.9696C176.102 16.6646 177.305 15.1335 177.962 13.3767C178.561 11.7702 178.475 10.4084 177.703 9.2914C176.931 8.1744 175.613 7.61584 173.749 7.61584Z" fill="white"/>
<path fill-rule="evenodd" clip-rule="evenodd" d="M163.547 1.32812L160.714 8.10509C159.482 8.10509 158.54 8.09248 157.89 8.06744C154.67 7.94221 152.715 7.87905 152.026 7.87905C150.699 10.6652 149.377 13.5709 148.061 16.5954C146.745 19.62 145.454 22.8266 144.188 26.2149H132.922C134.467 23.1527 135.935 20.0468 137.328 16.8965C138.72 13.7466 139.949 10.7406 141.018 7.87905C139.065 7.87905 137.553 7.89214 136.482 7.91798C136.535 7.79288 136.586 7.66595 136.634 7.53735C137.29 5.7806 137.558 3.72461 135.979 2.36901C135.629 2.06894 135.22 1.83319 134.777 1.6483L134.909 1.32812H163.547Z" fill="white"/>
<path fill-rule="evenodd" clip-rule="evenodd" d="M111.736 1.32812H130.743C133.093 1.32812 134.768 1.75491 135.768 2.60821C136.96 3.63756 137.149 5.24356 136.333 7.42763C135.751 8.98383 134.777 10.3079 133.408 11.3999C132.04 12.4914 130.473 13.1753 128.707 13.4514C130.332 13.4764 131.461 14.0412 132.095 15.146C132.729 16.2503 132.75 17.5929 132.159 19.1746C131.25 21.6093 129.615 23.4164 127.253 24.5962C125.101 25.6755 122.477 26.2149 119.381 26.2149H101.192C101.676 25.2701 102.272 24.0249 102.977 22.4799C104.194 21.7157 105.382 20.9089 106.535 20.054L106.676 19.9492L106.662 19.7754C106.54 18.2769 106.367 16.7804 106.137 15.2931C108.163 10.5499 110.03 5.89484 111.736 1.32812V1.32812ZM115.844 16.5767L114.264 20.2289H118.564C119.539 20.2289 120.283 20.0405 120.796 19.664C121.309 19.2871 121.684 18.7853 121.918 18.1578C122.18 17.4549 122.025 16.9904 121.45 16.7648C121.124 16.6395 120.473 16.5767 119.499 16.5767H115.844ZM119.734 7.31454L118.324 10.628H122.108C122.825 10.628 123.452 10.5022 123.991 10.2511C124.528 10.0004 124.919 9.54867 125.164 8.89564C125.37 8.34355 125.305 7.94221 124.968 7.69099C124.632 7.43991 124.134 7.31454 123.475 7.31454H119.734V7.31454Z" fill="white"/>
<path fill-rule="evenodd" clip-rule="evenodd" d="M60.1031 26.2149L58.9659 19.4756L51.7611 26.2149H45.0645L48.1047 19.4417C50.7942 17.2195 53.41 15.0092 55.9511 12.8116C55.5676 11.2301 55.0091 9.30974 54.2762 7.05125L53.9178 5.97352L55.9514 1.32812H64.9717L65.8556 6.78748L71.2497 1.32812H82.989L68.6413 13.489C69.0533 14.9953 69.4742 16.4196 69.9041 17.7628C70.0717 18.2853 70.2451 18.8184 70.4241 19.3619C70.1678 19.5552 69.9117 19.7486 69.6558 19.9424L69.4572 20.0928L69.5567 20.3198C70.3004 22.0163 71.2435 23.6092 72.4111 25.0475L72.8313 26.2149H60.1031V26.2149Z" fill="white"/>
<path fill-rule="evenodd" clip-rule="evenodd" d="M47.7892 19.3625L44.7133 26.2149H19.4717C20.6976 23.9309 22.5027 20.0781 24.8865 14.6566C25.8836 12.3885 26.7855 10.2919 27.5919 8.36636L28.0493 8.38397C28.9921 8.42041 29.9426 8.42189 30.886 8.42189H31.1003L34.0661 1.32812H55.6017L52.6679 8.02972C51.7505 8.02972 50.2332 8.00482 48.1162 7.95442C45.9997 7.90449 44.8693 7.87905 44.7256 7.87905H38.8344L37.6353 10.5149H42.0215C42.8244 10.5149 44.1811 10.4899 46.0914 10.4396C48.0022 10.3891 49.0291 10.3642 49.1727 10.3642L46.2104 17.0285H34.6429L33.4432 19.664C36.0807 19.664 38.8657 19.6135 41.7985 19.5133C44.7318 19.4129 46.7287 19.3625 47.7892 19.3625V19.3625Z" fill="white"/>
<path fill-rule="evenodd" clip-rule="evenodd" d="M33.7196 1.32812L30.8864 8.10516C29.6538 8.10516 28.7123 8.09241 28.0622 8.06744C24.8415 7.94214 22.8865 7.87898 22.1984 7.87898C20.8712 10.6652 19.5491 13.5708 18.2331 16.5954C16.9166 19.62 15.6257 22.8266 14.3595 26.2149H3.0938C4.63896 23.1526 6.10697 20.0468 7.49955 16.8964C8.89157 13.7466 10.1215 10.7406 11.1904 7.87898C8.46728 7.87898 6.60173 7.90449 5.59379 7.95442C4.58585 8.00482 3.48513 8.05523 2.29102 8.10516L5.08115 1.32812H33.7196V1.32812Z" fill="white"/>
<path fill-rule="evenodd" clip-rule="evenodd" d="M106.342 19.8012C104.415 21.2308 102.323 22.577 100.066 23.84C97.1968 25.4604 94.0548 26.9614 90.6401 28.3434C91.03 25.8177 91.1235 23.411 90.9206 21.1237C90.8055 19.5748 90.5579 18.1212 90.1777 16.763C87.1889 18.8121 84.4822 20.8853 82.0581 22.9822C80.0714 24.6977 78.1935 26.4849 76.4239 28.3434C75.1959 27.4618 74.1319 26.5207 73.2314 25.5198C71.855 23.971 70.7276 22.1957 69.8501 20.1943C75.7323 15.7384 81.3318 11.7711 86.6479 8.2922C91.1982 5.31374 95.751 2.54965 100.305 0C101.188 1.33441 101.963 2.70437 102.63 4.1103C103.507 5.969 104.242 8.08958 104.836 10.4724C105.567 13.3317 106.068 16.4414 106.342 19.8012ZM88.9897 25.9129C88.0174 26.1751 86.8937 26.4313 85.6188 26.6815C84.3437 26.9316 83.2292 27.0567 82.2753 27.0567C82.5472 26.4135 82.7522 25.782 82.8909 25.1625C83.0294 24.543 83.1712 23.6613 83.3158 22.5176C84.7403 22.3507 86.0311 22.1362 87.1879 21.8741C87.9967 21.7074 88.8105 21.493 89.6289 21.2308C89.695 21.8026 89.695 22.44 89.6289 23.143C89.5629 23.8459 89.3496 24.7692 88.9897 25.9129Z" fill="#ED3237"/>
</svg>
