<svg width="190" height="38" viewBox="0 0 190 38" fill="none" xmlns="http://www.w3.org/2000/svg">
<path d="M8.62435 32.5997H4.6791L3.00962 37.7901H0L2.09261 31.2912H9.04688L8.62435 32.5997ZM11.3588 37.7901H8.34977L10.4417 31.2912H15.0475C16.3084 31.2912 17.304 31.4208 18.0391 31.6794C18.8701 31.9802 19.286 32.4285 19.286 33.024C19.286 33.1744 19.262 33.3281 19.2127 33.4844C18.9808 34.2069 18.3257 34.7482 17.2494 35.109C16.2717 35.4405 15.0108 35.6055 13.47 35.6055H12.0558L11.3588 37.7901V37.7901ZM13.0289 32.591L12.4783 34.3057H13.8179C15.5067 34.3057 16.3503 33.9603 16.3503 33.2679C16.3503 32.8168 15.6899 32.591 14.3684 32.591H13.0289V32.591ZM31.5251 31.2912L23.9837 37.7901H20.8821L22.6635 36.2284L19.7451 31.2912H22.9381L24.7734 34.5771L28.3515 31.2912H31.5251V31.2912ZM40.8845 37.7901H37.8756L39.545 32.609H35.2332L33.5631 37.7901H30.5541L32.646 31.2912H42.9764L40.8845 37.7901V37.7901ZM53.5828 37.7901H50.5738L52.2433 32.609H47.9314L46.2613 37.7901H43.2524L45.3443 31.2912H55.6747L53.5828 37.7901V37.7901ZM67.7345 37.7901H64.4497L63.9905 36.6167H59.2575L57.9913 37.7901H54.7604L62.1198 31.2912H64.579L67.7345 37.7901ZM63.5507 35.4071L62.7976 33.0781L60.5044 35.4071H63.5507V35.4071ZM85.5497 37.7901H81.9889L79.016 34.8477L78.0623 37.7901H75.0534L77.144 31.2912H80.1549L79.1819 34.2971L84.2468 31.2912H87.4757L81.8243 34.5223L85.5497 37.7901V37.7901ZM92.0994 37.9164C90.3994 37.9164 88.9865 37.6504 87.8603 37.1179C86.7353 36.5853 86.1735 35.9036 86.1735 35.0729C86.1735 34.0264 86.9899 33.1129 88.6226 32.3337C90.2554 31.5545 92.1361 31.1649 94.2647 31.1649C95.9654 31.1649 97.3716 31.4208 98.4859 31.9321C99.6109 32.4613 100.175 33.1416 100.175 33.9723C100.175 35.0308 99.3662 35.953 97.7521 36.7383C96.1367 37.5241 94.2527 37.9164 92.0994 37.9164V37.9164ZM93.8435 32.5007C92.6192 32.5007 91.5463 32.7426 90.6226 33.2271C89.6989 33.7117 89.2365 34.2576 89.2365 34.8658C89.2365 35.347 89.5396 35.7532 90.1455 36.0841C90.7512 36.4148 91.5437 36.5805 92.522 36.5805C93.7702 36.5805 94.8465 36.334 95.7509 35.8401C96.6572 35.347 97.1097 34.7903 97.1097 34.1708C97.1097 33.6829 96.8091 33.2833 96.21 32.9698C95.6109 32.6571 94.8218 32.5007 93.8435 32.5007V32.5007ZM114.692 37.7901H111.884L113.094 34.1167C113.218 33.8333 113.382 33.4096 113.59 32.8436C113.578 32.8436 111.976 34.4922 108.782 37.7901H106.765L105.186 32.8168L105.167 32.8255C105.094 33.1082 104.978 33.5326 104.819 34.0986L103.663 37.7901H100.837L102.93 31.2912H106.948L108.434 35.7953L112.801 31.2912H116.783L114.692 37.7901V37.7901ZM127.404 37.7901H124.395L126.064 32.609H121.752L120.082 37.7901H117.073L119.165 31.2912H129.496L127.404 37.7901V37.7901ZM141.556 37.7901H138.271L137.812 36.6167H133.079L131.812 37.7901H128.581L135.941 31.2912H138.4L141.556 37.7901V37.7901ZM137.372 35.4071L136.619 33.0781L134.325 35.4071H137.372V35.4071ZM153.316 37.7901H150.305L151.168 35.1271H146.581L145.719 37.7901H142.727L144.819 31.2912H147.809L147.002 33.8092H151.59L152.397 31.2912H155.406L153.316 37.7901ZM166.728 37.7901H163.793L165.077 33.7731L158.215 37.7901H155.7L157.792 31.2912H160.801L159.517 35.2721L166.362 31.2912H168.821L166.728 37.7901V37.7901ZM180.128 29.4768C179.992 29.8918 179.586 30.2487 178.907 30.5467C178.229 30.8441 177.46 30.9931 176.604 30.9931C175.87 30.9931 175.265 30.8715 174.787 30.6275C174.311 30.3843 174.072 30.0816 174.072 29.7207C174.072 29.6365 174.084 29.555 174.108 29.4768H175.961C175.949 29.5309 175.944 29.5824 175.944 29.6305C175.944 29.9854 176.262 30.1631 176.897 30.1631C177.669 30.1631 178.127 29.9339 178.274 29.4768H180.128V29.4768ZM179.852 37.7901H176.916L178.219 33.7731L171.338 37.7901H168.823L170.915 31.2912H173.925L172.641 35.2721L179.485 31.2912H181.944L179.852 37.7901V37.7901Z" fill="#373435"/>
<path fill-rule="evenodd" clip-rule="evenodd" d="M176.668 0.839111C181.513 0.839111 185.113 1.83081 187.468 3.81319C190.131 6.04733 190.694 9.22262 189.156 13.3387C187.862 16.803 185.507 19.7271 182.095 22.1115C177.74 25.1738 172.352 26.7049 165.93 26.7049C161.114 26.7049 157.486 25.7513 155.045 23.8433C152.249 21.6597 151.61 18.5347 153.13 14.4685C153.997 12.1453 155.25 10.1047 156.886 8.34631L157.877 8.38443C158.82 8.42087 159.771 8.42235 160.714 8.42235H160.928L162.768 4.02048C164.729 3.03648 166.918 2.26475 169.336 1.70503C171.873 1.12791 174.318 0.839111 176.668 0.839111ZM173.749 7.61608C171.743 7.61608 169.855 8.25636 168.087 9.53638C166.319 10.8164 165.097 12.3603 164.422 14.1675C163.803 15.8239 163.899 17.1984 164.709 18.2899C165.52 19.382 166.871 19.9278 168.763 19.9278C170.741 19.9278 172.604 19.2753 174.353 17.9698C176.102 16.6648 177.305 15.1337 177.962 13.3769C178.561 11.7705 178.475 10.4086 177.703 9.29165C176.931 8.17465 175.613 7.61608 173.749 7.61608Z" fill="#373435"/>
<path fill-rule="evenodd" clip-rule="evenodd" d="M163.547 1.32861L160.714 8.10558C159.482 8.10558 158.54 8.09296 157.89 8.06793C154.67 7.94269 152.715 7.87954 152.026 7.87954C150.699 10.6657 149.377 13.5713 148.061 16.5959C146.745 19.6205 145.454 22.8271 144.188 26.2154H132.922C134.467 23.1532 135.935 20.0473 137.328 16.897C138.72 13.7471 139.949 10.7411 141.018 7.87954C139.065 7.87954 137.553 7.89262 136.482 7.91847C136.535 7.79337 136.586 7.66644 136.634 7.53783C137.29 5.78109 137.558 3.72509 135.979 2.3695C135.629 2.06943 135.22 1.83367 134.777 1.64879L134.909 1.32861H163.547Z" fill="#373435"/>
<path fill-rule="evenodd" clip-rule="evenodd" d="M111.736 1.32861H130.743C133.093 1.32861 134.768 1.7554 135.768 2.6087C136.96 3.63805 137.149 5.24405 136.333 7.42812C135.751 8.98432 134.777 10.3084 133.408 11.4004C132.04 12.4919 130.473 13.1758 128.707 13.4518C130.332 13.4769 131.461 14.0417 132.095 15.1465C132.729 16.2508 132.75 17.5934 132.159 19.175C131.25 21.6098 129.615 23.4169 127.253 24.5967C125.101 25.676 122.477 26.2154 119.381 26.2154H101.192C101.676 25.2706 102.272 24.0254 102.977 22.4804C104.194 21.7162 105.382 20.9094 106.535 20.0545L106.676 19.9497L106.662 19.7758C106.54 18.2773 106.367 16.7809 106.137 15.2936C108.163 10.5504 110.03 5.89533 111.736 1.32861V1.32861ZM115.844 16.5772L114.264 20.2294H118.564C119.539 20.2294 120.283 20.041 120.796 19.6645C121.309 19.2876 121.684 18.7858 121.918 18.1583C122.18 17.4554 122.025 16.9909 121.45 16.7653C121.124 16.64 120.473 16.5772 119.499 16.5772H115.844ZM119.734 7.31503L118.324 10.6285H122.108C122.825 10.6285 123.452 10.5027 123.991 10.2516C124.528 10.0009 124.919 9.54916 125.164 8.89613C125.37 8.34404 125.305 7.94269 124.968 7.69148C124.632 7.4404 124.134 7.31503 123.475 7.31503H119.734V7.31503Z" fill="#373435"/>
<path fill-rule="evenodd" clip-rule="evenodd" d="M60.1031 26.2154L58.9659 19.476L51.7611 26.2154H45.0645L48.1047 19.4422C50.7942 17.22 53.41 15.0097 55.9511 12.8121C55.5676 11.2306 55.0091 9.31023 54.2762 7.05174L53.9178 5.97401L55.9514 1.32861H64.9717L65.8556 6.78797L71.2497 1.32861H82.989L68.6413 13.4895C69.0533 14.9958 69.4742 16.4201 69.9041 17.7633C70.0717 18.2858 70.2451 18.8189 70.4241 19.3624C70.1678 19.5557 69.9117 19.7491 69.6558 19.9429L69.4572 20.0933L69.5567 20.3202C70.3004 22.0168 71.2435 23.6096 72.4111 25.048L72.8313 26.2154H60.1031V26.2154Z" fill="#373435"/>
<path fill-rule="evenodd" clip-rule="evenodd" d="M47.7892 19.363L44.7133 26.2154H19.4717C20.6976 23.9314 22.5027 20.0786 24.8865 14.657C25.8836 12.389 26.7855 10.2923 27.5919 8.36685L28.0493 8.38446C28.9921 8.4209 29.9426 8.42238 30.886 8.42238H31.1003L34.0661 1.32861H55.6017L52.6679 8.03021C51.7505 8.03021 50.2332 8.00531 48.1162 7.95491C45.9997 7.90498 44.8693 7.87954 44.7256 7.87954H38.8344L37.6353 10.5154H42.0215C42.8244 10.5154 44.1811 10.4904 46.0914 10.4401C48.0022 10.3896 49.0291 10.3647 49.1727 10.3647L46.2104 17.029H34.6429L33.4432 19.6645C36.0807 19.6645 38.8657 19.614 41.7985 19.5138C44.7318 19.4134 46.7287 19.363 47.7892 19.363V19.363Z" fill="#373435"/>
<path fill-rule="evenodd" clip-rule="evenodd" d="M33.7196 1.32861L30.8864 8.10565C29.6538 8.10565 28.7123 8.0929 28.0622 8.06793C24.8415 7.94263 22.8865 7.87946 22.1984 7.87946C20.8712 10.6657 19.5491 13.5713 18.2331 16.5959C16.9166 19.6204 15.6257 22.8271 14.3595 26.2154H3.0938C4.63896 23.1531 6.10697 20.0473 7.49955 16.8969C8.89157 13.7471 10.1215 10.7411 11.1904 7.87946C8.46728 7.87946 6.60173 7.90497 5.59379 7.95491C4.58585 8.00531 3.48513 8.05571 2.29102 8.10565L5.08115 1.32861H33.7196V1.32861Z" fill="#373435"/>
<path fill-rule="evenodd" clip-rule="evenodd" d="M106.342 19.8012C104.415 21.2308 102.323 22.577 100.066 23.84C97.1968 25.4604 94.0548 26.9614 90.6401 28.3434C91.03 25.8177 91.1235 23.411 90.9206 21.1237C90.8055 19.5748 90.5579 18.1212 90.1777 16.763C87.1889 18.8121 84.4822 20.8853 82.0581 22.9822C80.0714 24.6977 78.1935 26.4849 76.4239 28.3434C75.1959 27.4618 74.1319 26.5207 73.2314 25.5198C71.855 23.971 70.7276 22.1957 69.8501 20.1943C75.7323 15.7384 81.3318 11.7711 86.6479 8.2922C91.1982 5.31374 95.751 2.54965 100.305 0C101.188 1.33441 101.963 2.70437 102.63 4.1103C103.507 5.969 104.242 8.08958 104.836 10.4724C105.567 13.3317 106.068 16.4414 106.342 19.8012ZM88.9897 25.9129C88.0174 26.1751 86.8937 26.4313 85.6188 26.6815C84.3437 26.9316 83.2292 27.0567 82.2753 27.0567C82.5472 26.4135 82.7522 25.782 82.8909 25.1625C83.0294 24.543 83.1712 23.6613 83.3158 22.5176C84.7403 22.3507 86.0311 22.1362 87.1879 21.8741C87.9967 21.7074 88.8105 21.493 89.6289 21.2308C89.695 21.8026 89.695 22.44 89.6289 23.143C89.5629 23.8459 89.3496 24.7692 88.9897 25.9129Z" fill="#ED3237"/>
</svg>
